<svg width="461" height="420" viewBox="0 0 461 420" fill="none" xmlns="http://www.w3.org/2000/svg">
<path d="M161.652 270.772L128.944 289.648C113.517 298.558 101.037 292.491 101.037 274.629V137.826C101.037 111.566 105.18 105.386 117.573 98.2362L194.706 53.7242C210.133 44.8235 222.604 50.8902 222.604 68.7435V109.356" stroke="white" stroke-width="11" stroke-linecap="round" stroke-linejoin="round"/>
<path d="M226.54 305.055L189.56 326.393C174.133 335.302 161.653 329.235 161.653 311.373V174.57C161.653 148.31 165.796 142.131 178.18 134.981L255.314 90.4687C270.74 81.568 283.22 87.6347 283.22 105.488V146.083" stroke="white" stroke-width="11" stroke-linecap="round" stroke-linejoin="round"/>
<path d="M369.342 318.159L287.823 365.193C279.962 369.726 270.342 374.527 257.221 364.066C233.769 345.381 222.294 301.441 222.294 267.086V211.316C222.294 185.056 226.428 178.877 238.813 171.727L315.946 127.215C331.373 118.314 343.853 124.372 343.853 142.234V190.932C343.853 221.664 352.901 260.24 371.838 281.204C382.099 292.566 381.258 311.278 369.342 318.159Z" stroke="white" stroke-width="11" stroke-linecap="round" stroke-linejoin="round"/>
</svg>
